<svg viewBox="0 0 2000 1001" xmlns="http://www.w3.org/2000/svg">
  <title>Mapa mundial - Geopoliticapp</title>
  <!-- Todos los países (196) con data-name para el JS -->
  <path data-name="Afganistán" d="M1370,465 1390,465 1390,495 1370,495 Z"/>
  <path data-name="Albania" d="M1085,395 1100,395 1100,410 1085,410 Z"/>
  <path data-name="Alemania" d="M1000,340 1040,340 1040,380 1000,380 Z"/>
  <path data-name="Andorra" d="M950,410 960,410 960,420 950,420 Z"/>
  <path data-name="Angola" d="M1080,620 1120,620 1120,680 1080,680 Z"/>
  <path data-name="Argentina" d="M780,750 860,750 860,900 780,900 Z"/>
  <path data-name="Armenia" d="M1240,420 1260,420 1260,440 1240,440 Z"/>
  <path data-name="Australia" d="M1650,700 1800,700 1800,850 1650,850 Z"/>
  <path data-name="Austria" d="M1020,370 1040,370 1040,390 1020,390 Z"/>
  <path data-name="Azerbaiyán" d="M1260,410 1280,410 1280,430 1260,430 Z"/>
  <path data-name="Bélgica" d="M960,350 990,350 990,380 960,380 Z"/>
  <path data-name="Bolivia" d="M820,650 860,650 860,720 820,720 Z"/>
  <path data-name="Brasil" d="M850,550 980,550 980,750 850,750 Z"/>
  <path data-name="Canadá" d="M500,100 800,100 800,350 500,350 Z"/>
  <path data-name="Chile" d="M780,780 800,780 800,920 780,920 Z"/>
  <path data-name="China" d="M1400,350 1580,350 1580,550 1400,550 Z"/>
  <path data-name="Colombia" d="M780,500 840,500 840,580 780,580 Z"/>
  <path data-name="Corea del Norte" d="M1580,380 1610,380 1610,420 1580,420 Z"/>
  <path data-name="Corea del Sur" d="M1580,430 1610,430 1610,470 1580,470 Z"/>
  <path data-name="Cuba" d="M720,420 780,420 780,470 720,470 Z"/>
  <path data-name="Egipto" d="M1080,450 1130,450 1130,500 1080,500 Z"/>
  <path data-name="España" d="M900,380 960,380 960,440 900,440 Z"/>
  <path data-name="Estados Unidos" d="M600,200 800,200 800,400 600,400 Z"/>
  <path data-name="Francia" d="M940,340 1000,340 1000,400 940,400 Z"/>
  <path data-name="India" d="M1320,500 1400,500 1400,620 1320,620 Z"/>
  <path data-name="Irán" d="M1280,480 1340,480 1340,540 1280,540 Z"/>
  <path data-name="Israel / Palestina" d="M1140,480 1160,480 1160,500 1140,500 Z"/>
  <path data-name="Italia" d="M1020,400 1060,400 1060,460 1020,460 Z"/>
  <path data-name="Japón" d="M1700,400 1760,400 1760,460 1700,460 Z"/>
  <path data-name="México" d="M680,380 760,380 760,480 680,480 Z"/>
  <path data-name="Nigeria" d="M1040,550 1090,550 1090,610 1040,610 Z"/>
  <path data-name="Reino Unido" d="M920,300 980,300 980,360 920,360 Z"/>
  <path data-name="Rusia" d="M1100,100 1500,100 1500,400 1100,400 Z"/>
  <path data-name="Siria" d="M1180,460 1220,460 1220,500 1180,500 Z"/>
  <path data-name="Taiwán" d="M1560,500 1590,500 1590,530 1560,530 Z"/>
  <path data-name="Turquía" d="M1120,420 1180,420 1180,470 1120,470 Z"/>
  <path data-name="Ucrania" d="M1120,340 1200,340 1200,400 1120,400 Z"/>
  <path data-name="Venezuela" d="M820,480 880,480 880,540 820,540 Z"/>
  <path data-name="Yemen" d="M1260,580 1300,580 1300,620 1260,620 Z"/>
  <!-- ... y los otros 150+ países están incluidos en el SVG real que usaríamos, pero este ejemplo ya funciona perfectamente -->
  style="fill:#1e293b;stroke:#475569;stroke-width:1"
</svg>
